<svg width="512" height="512" viewBox="0 0 512 512" xmlns="http://www.w3.org/2000/svg">
  <defs>
    <linearGradient id="bg" x1="0" y1="0" x2="1" y2="1">
      <stop offset="0" stop-color="#4ade80"/>
      <stop offset="1" stop-color="#16a34a"/>
    </linearGradient>
  </defs>
  <!-- Full-bleed background (safe for maskable icons) -->
  <rect width="512" height="512" fill="url(#bg)"/>
  <!-- Barcode bars, centered within the maskable safe zone (~60%) -->
  <g fill="#ffffff">
    <rect x="158" y="176" width="16" height="160" rx="4"/>
    <rect x="186" y="176" width="10" height="160" rx="4"/>
    <rect x="208" y="176" width="22" height="160" rx="4"/>
    <rect x="242" y="176" width="10" height="160" rx="4"/>
    <rect x="264" y="176" width="16" height="160" rx="4"/>
    <rect x="292" y="176" width="22" height="160" rx="4"/>
    <rect x="326" y="176" width="10" height="160" rx="4"/>
    <rect x="348" y="176" width="16" height="160" rx="4"/>
  </g>
  <!-- Leaf accent -->
  <path d="M300 150 C300 122 322 100 350 100 C350 128 328 150 300 150 Z" fill="#bbf7d0"/>
</svg>
